<mxfile host="app.diagrams.net" agent="Mozilla/5.0 (Windows NT 10.0; Win64; x64) AppleWebKit/537.36 (KHTML, like Gecko) Chrome/136.0.0.0 Safari/537.36" version="27.1.0">
  <diagram name="Page-1" id="2YBvvXClWsGukQMizWep">
    <mxGraphModel dx="535" dy="448" grid="1" gridSize="10" guides="1" tooltips="1" connect="1" arrows="1" fold="1" page="1" pageScale="1" pageWidth="850" pageHeight="1100" math="0" shadow="0">
      <root>
        <mxCell id="0" />
        <mxCell id="1" parent="0" />
        <mxCell id="aM9ryv3xv72pqoxQDRHE-1" value="UI" style="shape=umlLifeline;perimeter=lifelinePerimeter;whiteSpace=wrap;html=1;container=0;dropTarget=0;collapsible=0;recursiveResize=0;outlineConnect=0;portConstraint=eastwest;newEdgeStyle={&quot;edgeStyle&quot;:&quot;elbowEdgeStyle&quot;,&quot;elbow&quot;:&quot;vertical&quot;,&quot;curved&quot;:0,&quot;rounded&quot;:0};" parent="1" vertex="1">
          <mxGeometry x="150" y="40" width="100" height="300" as="geometry" />
        </mxCell>
        <mxCell id="aM9ryv3xv72pqoxQDRHE-2" value="" style="html=1;points=[];perimeter=orthogonalPerimeter;outlineConnect=0;targetShapes=umlLifeline;portConstraint=eastwest;newEdgeStyle={&quot;edgeStyle&quot;:&quot;elbowEdgeStyle&quot;,&quot;elbow&quot;:&quot;vertical&quot;,&quot;curved&quot;:0,&quot;rounded&quot;:0};" parent="aM9ryv3xv72pqoxQDRHE-1" vertex="1">
          <mxGeometry x="45" y="70" width="10" height="190" as="geometry" />
        </mxCell>
        <mxCell id="aM9ryv3xv72pqoxQDRHE-3" value="Select Filters" style="html=1;verticalAlign=bottom;startArrow=oval;endArrow=block;startSize=8;edgeStyle=elbowEdgeStyle;elbow=vertical;curved=0;rounded=0;" parent="aM9ryv3xv72pqoxQDRHE-1" target="aM9ryv3xv72pqoxQDRHE-2" edge="1">
          <mxGeometry relative="1" as="geometry">
            <mxPoint x="-70" y="70" as="sourcePoint" />
          </mxGeometry>
        </mxCell>
        <mxCell id="aM9ryv3xv72pqoxQDRHE-5" value="FilterCriteriaBuilder" style="shape=umlLifeline;perimeter=lifelinePerimeter;whiteSpace=wrap;html=1;container=0;dropTarget=0;collapsible=0;recursiveResize=0;outlineConnect=0;portConstraint=eastwest;newEdgeStyle={&quot;edgeStyle&quot;:&quot;elbowEdgeStyle&quot;,&quot;elbow&quot;:&quot;vertical&quot;,&quot;curved&quot;:0,&quot;rounded&quot;:0};" parent="1" vertex="1">
          <mxGeometry x="310" y="40" width="110" height="300" as="geometry" />
        </mxCell>
        <mxCell id="aM9ryv3xv72pqoxQDRHE-7" value="Query packages" style="html=1;verticalAlign=bottom;endArrow=block;edgeStyle=elbowEdgeStyle;elbow=vertical;curved=0;rounded=0;exitX=0.006;exitY=1.025;exitDx=0;exitDy=0;exitPerimeter=0;" parent="1" source="didD5GD8m1M6sOqzLpqc-17" target="didD5GD8m1M6sOqzLpqc-15" edge="1">
          <mxGeometry relative="1" as="geometry">
            <mxPoint x="205" y="210" as="sourcePoint" />
            <Array as="points">
              <mxPoint x="295" y="210" />
            </Array>
            <mxPoint x="370" y="210" as="targetPoint" />
          </mxGeometry>
        </mxCell>
        <mxCell id="aM9ryv3xv72pqoxQDRHE-8" value="return" style="html=1;verticalAlign=bottom;endArrow=open;dashed=1;endSize=8;edgeStyle=elbowEdgeStyle;elbow=vertical;curved=0;rounded=0;" parent="1" source="aM9ryv3xv72pqoxQDRHE-5" target="aM9ryv3xv72pqoxQDRHE-2" edge="1">
          <mxGeometry relative="1" as="geometry">
            <mxPoint x="310" y="205" as="targetPoint" />
            <Array as="points">
              <mxPoint x="305" y="280" />
            </Array>
            <mxPoint x="345" y="370" as="sourcePoint" />
          </mxGeometry>
        </mxCell>
        <mxCell id="didD5GD8m1M6sOqzLpqc-3" value="PackageFilterService" style="rounded=0;whiteSpace=wrap;html=1;" vertex="1" parent="1">
          <mxGeometry x="460" y="40" width="120" height="40" as="geometry" />
        </mxCell>
        <mxCell id="didD5GD8m1M6sOqzLpqc-4" value="FilterStrategy" style="rounded=0;whiteSpace=wrap;html=1;" vertex="1" parent="1">
          <mxGeometry x="615" y="40" width="100" height="40" as="geometry" />
        </mxCell>
        <mxCell id="didD5GD8m1M6sOqzLpqc-5" value="PackageRepository" style="rounded=0;whiteSpace=wrap;html=1;" vertex="1" parent="1">
          <mxGeometry x="730" y="40" width="110" height="40" as="geometry" />
        </mxCell>
        <mxCell id="didD5GD8m1M6sOqzLpqc-6" value="User" style="shape=umlActor;verticalLabelPosition=bottom;verticalAlign=top;html=1;outlineConnect=0;" vertex="1" parent="1">
          <mxGeometry x="70" y="40" width="20" height="40" as="geometry" />
        </mxCell>
        <mxCell id="didD5GD8m1M6sOqzLpqc-7" value="" style="endArrow=none;dashed=1;html=1;dashPattern=1 3;strokeWidth=2;rounded=0;" edge="1" parent="1">
          <mxGeometry width="50" height="50" relative="1" as="geometry">
            <mxPoint x="80" y="350" as="sourcePoint" />
            <mxPoint x="80" y="110" as="targetPoint" />
          </mxGeometry>
        </mxCell>
        <mxCell id="didD5GD8m1M6sOqzLpqc-12" value="" style="endArrow=none;dashed=1;html=1;dashPattern=1 3;strokeWidth=2;rounded=0;entryX=0.5;entryY=1;entryDx=0;entryDy=0;" edge="1" parent="1" target="didD5GD8m1M6sOqzLpqc-3">
          <mxGeometry width="50" height="50" relative="1" as="geometry">
            <mxPoint x="520" y="340" as="sourcePoint" />
            <mxPoint x="580" y="140" as="targetPoint" />
          </mxGeometry>
        </mxCell>
        <mxCell id="didD5GD8m1M6sOqzLpqc-13" value="" style="endArrow=none;dashed=1;html=1;dashPattern=1 3;strokeWidth=2;rounded=0;entryX=0.5;entryY=1;entryDx=0;entryDy=0;" edge="1" parent="1" source="didD5GD8m1M6sOqzLpqc-26" target="didD5GD8m1M6sOqzLpqc-4">
          <mxGeometry width="50" height="50" relative="1" as="geometry">
            <mxPoint x="649.52" y="340" as="sourcePoint" />
            <mxPoint x="649.52" y="80" as="targetPoint" />
          </mxGeometry>
        </mxCell>
        <mxCell id="didD5GD8m1M6sOqzLpqc-14" value="" style="endArrow=none;dashed=1;html=1;dashPattern=1 3;strokeWidth=2;rounded=0;entryX=0.5;entryY=1;entryDx=0;entryDy=0;" edge="1" parent="1">
          <mxGeometry width="50" height="50" relative="1" as="geometry">
            <mxPoint x="779.52" y="340" as="sourcePoint" />
            <mxPoint x="779.52" y="80" as="targetPoint" />
          </mxGeometry>
        </mxCell>
        <mxCell id="didD5GD8m1M6sOqzLpqc-15" value="" style="html=1;points=[];perimeter=orthogonalPerimeter;outlineConnect=0;targetShapes=umlLifeline;portConstraint=eastwest;newEdgeStyle={&quot;edgeStyle&quot;:&quot;elbowEdgeStyle&quot;,&quot;elbow&quot;:&quot;vertical&quot;,&quot;curved&quot;:0,&quot;rounded&quot;:0};" vertex="1" parent="1">
          <mxGeometry x="515" y="130" width="10" height="190" as="geometry" />
        </mxCell>
        <mxCell id="didD5GD8m1M6sOqzLpqc-16" value="List &amp;lt;Package&amp;gt;" style="html=1;verticalAlign=bottom;endArrow=open;dashed=1;endSize=8;edgeStyle=elbowEdgeStyle;elbow=vertical;curved=0;rounded=0;" edge="1" parent="1" target="aM9ryv3xv72pqoxQDRHE-1">
          <mxGeometry relative="1" as="geometry">
            <mxPoint x="610" y="310" as="targetPoint" />
            <Array as="points">
              <mxPoint x="520" y="310" />
            </Array>
            <mxPoint x="450" y="310" as="sourcePoint" />
          </mxGeometry>
        </mxCell>
        <mxCell id="aM9ryv3xv72pqoxQDRHE-9" value="getAll()" style="html=1;verticalAlign=bottom;endArrow=block;edgeStyle=elbowEdgeStyle;elbow=vertical;curved=0;rounded=0;" parent="1" target="didD5GD8m1M6sOqzLpqc-26" edge="1">
          <mxGeometry relative="1" as="geometry">
            <mxPoint x="525" y="140" as="sourcePoint" />
            <Array as="points">
              <mxPoint x="660" y="140" />
              <mxPoint x="590" y="150" />
            </Array>
            <mxPoint x="650" y="150" as="targetPoint" />
          </mxGeometry>
        </mxCell>
        <mxCell id="aM9ryv3xv72pqoxQDRHE-10" value="List&amp;lt;Package&amp;gt;" style="html=1;verticalAlign=bottom;endArrow=open;dashed=1;endSize=8;edgeStyle=elbowEdgeStyle;elbow=vertical;curved=0;rounded=0;" parent="1" source="didD5GD8m1M6sOqzLpqc-26" target="didD5GD8m1M6sOqzLpqc-15" edge="1">
          <mxGeometry relative="1" as="geometry">
            <mxPoint x="540" y="185" as="targetPoint" />
            <Array as="points">
              <mxPoint x="550" y="160" />
              <mxPoint x="620" y="180" />
              <mxPoint x="600" y="190" />
              <mxPoint x="620" y="195" />
            </Array>
            <mxPoint x="650" y="195" as="sourcePoint" />
          </mxGeometry>
        </mxCell>
        <mxCell id="didD5GD8m1M6sOqzLpqc-17" value="setDateRange()&lt;div&gt;setPriceRange()&lt;/div&gt;&lt;div&gt;setTransportType()&lt;/div&gt;&lt;div&gt;setDestination()&lt;/div&gt;&lt;div&gt;&lt;span style=&quot;background-color: transparent; color: light-dark(rgb(0, 0, 0), rgb(255, 255, 255));&quot;&gt;build()&lt;/span&gt;&lt;/div&gt;" style="text;html=1;align=center;verticalAlign=middle;resizable=0;points=[];autosize=1;strokeColor=none;fillColor=none;" vertex="1" parent="1">
          <mxGeometry x="80" y="120" width="120" height="90" as="geometry" />
        </mxCell>
        <mxCell id="didD5GD8m1M6sOqzLpqc-21" value="apply(criteria)" style="html=1;verticalAlign=bottom;endArrow=open;dashed=1;endSize=8;edgeStyle=elbowEdgeStyle;elbow=vertical;curved=0;rounded=0;" edge="1" parent="1">
          <mxGeometry x="-0.04" relative="1" as="geometry">
            <mxPoint x="660" y="189.8" as="targetPoint" />
            <Array as="points">
              <mxPoint x="580" y="189.8" />
            </Array>
            <mxPoint x="525" y="189.80000000000013" as="sourcePoint" />
            <mxPoint as="offset" />
          </mxGeometry>
        </mxCell>
        <mxCell id="didD5GD8m1M6sOqzLpqc-23" value="Filtered List" style="html=1;verticalAlign=bottom;endArrow=open;dashed=1;endSize=8;edgeStyle=elbowEdgeStyle;elbow=vertical;curved=0;rounded=0;" edge="1" parent="1" target="didD5GD8m1M6sOqzLpqc-26">
          <mxGeometry relative="1" as="geometry">
            <mxPoint x="650" y="210" as="targetPoint" />
            <Array as="points">
              <mxPoint x="580" y="210" />
            </Array>
            <mxPoint x="525" y="210.0000000000001" as="sourcePoint" />
          </mxGeometry>
        </mxCell>
        <mxCell id="didD5GD8m1M6sOqzLpqc-27" value="" style="endArrow=none;dashed=1;html=1;dashPattern=1 3;strokeWidth=2;rounded=0;entryX=0.5;entryY=1;entryDx=0;entryDy=0;" edge="1" parent="1" target="didD5GD8m1M6sOqzLpqc-26">
          <mxGeometry width="50" height="50" relative="1" as="geometry">
            <mxPoint x="665" y="350" as="sourcePoint" />
            <mxPoint x="649.52" y="80" as="targetPoint" />
          </mxGeometry>
        </mxCell>
        <mxCell id="didD5GD8m1M6sOqzLpqc-26" value="" style="html=1;points=[];perimeter=orthogonalPerimeter;outlineConnect=0;targetShapes=umlLifeline;portConstraint=eastwest;newEdgeStyle={&quot;edgeStyle&quot;:&quot;elbowEdgeStyle&quot;,&quot;elbow&quot;:&quot;vertical&quot;,&quot;curved&quot;:0,&quot;rounded&quot;:0};" vertex="1" parent="1">
          <mxGeometry x="660" y="130" width="10" height="200" as="geometry" />
        </mxCell>
        <mxCell id="didD5GD8m1M6sOqzLpqc-28" value="apply(criteria)" style="html=1;verticalAlign=bottom;endArrow=open;dashed=1;endSize=8;edgeStyle=elbowEdgeStyle;elbow=vertical;curved=0;rounded=0;" edge="1" parent="1" target="didD5GD8m1M6sOqzLpqc-26">
          <mxGeometry relative="1" as="geometry">
            <mxPoint x="650" y="240" as="targetPoint" />
            <Array as="points">
              <mxPoint x="580" y="240" />
            </Array>
            <mxPoint x="525" y="240.0000000000001" as="sourcePoint" />
          </mxGeometry>
        </mxCell>
        <mxCell id="didD5GD8m1M6sOqzLpqc-29" value="Filtered List" style="html=1;verticalAlign=bottom;endArrow=open;dashed=1;endSize=8;edgeStyle=elbowEdgeStyle;elbow=vertical;curved=0;rounded=0;" edge="1" parent="1" target="didD5GD8m1M6sOqzLpqc-26">
          <mxGeometry relative="1" as="geometry">
            <mxPoint x="655" y="270" as="targetPoint" />
            <Array as="points">
              <mxPoint x="585" y="270" />
            </Array>
            <mxPoint x="530" y="270.0000000000001" as="sourcePoint" />
          </mxGeometry>
        </mxCell>
        <mxCell id="didD5GD8m1M6sOqzLpqc-30" value="apply(criteria)" style="html=1;verticalAlign=bottom;endArrow=open;dashed=1;endSize=8;edgeStyle=elbowEdgeStyle;elbow=vertical;curved=0;rounded=0;" edge="1" parent="1" target="didD5GD8m1M6sOqzLpqc-26">
          <mxGeometry relative="1" as="geometry">
            <mxPoint x="650" y="289.23" as="targetPoint" />
            <Array as="points">
              <mxPoint x="580" y="289.23" />
            </Array>
            <mxPoint x="525" y="289.23000000000013" as="sourcePoint" />
          </mxGeometry>
        </mxCell>
        <mxCell id="didD5GD8m1M6sOqzLpqc-31" value="Filtered List" style="html=1;verticalAlign=bottom;endArrow=open;dashed=1;endSize=8;edgeStyle=elbowEdgeStyle;elbow=vertical;curved=0;rounded=0;" edge="1" parent="1" target="didD5GD8m1M6sOqzLpqc-26">
          <mxGeometry relative="1" as="geometry">
            <mxPoint x="650" y="319.23" as="targetPoint" />
            <Array as="points">
              <mxPoint x="580" y="319.23" />
            </Array>
            <mxPoint x="525" y="319.23000000000013" as="sourcePoint" />
          </mxGeometry>
        </mxCell>
        <mxCell id="didD5GD8m1M6sOqzLpqc-32" value="Display results" style="html=1;verticalAlign=bottom;endArrow=open;dashed=1;endSize=8;edgeStyle=elbowEdgeStyle;elbow=vertical;curved=0;rounded=0;" edge="1" parent="1" source="aM9ryv3xv72pqoxQDRHE-5">
          <mxGeometry relative="1" as="geometry">
            <mxPoint x="80" y="340" as="targetPoint" />
            <Array as="points">
              <mxPoint x="250" y="339.53" />
            </Array>
            <mxPoint x="300" y="339.53" as="sourcePoint" />
          </mxGeometry>
        </mxCell>
      </root>
    </mxGraphModel>
  </diagram>
</mxfile>
